<svg xmlns="http://www.w3.org/2000/svg" xmlns:xlink="http://www.w3.org/1999/xlink" width="2000" zoomAndPan="magnify" viewBox="0 0 1500 1499.999933" height="2000" preserveAspectRatio="xMidYMid meet" version="1.0"><path fill="#000000" d="M 757.019531 617.636719 L 759.578125 618.28125 C 784.386719 624.742188 806.515625 637.511719 825.234375 655.019531 C 831.21875 661.253906 836.605469 668 841.417969 675.179688 L 841.417969 677.738281 L 845.253906 676.457031 C 847.007812 674.25 848.6875 671.984375 850.289062 669.664062 C 864.039062 650.746094 881.546875 636.839844 902.824219 627.113281 C 931.695312 614.695312 961.8125 611.371094 993.027344 614.082031 C 998.878906 614.820312 1004.519531 616.125 1010.210938 617.636719 L 1012.847656 618.28125 C 1036.117188 623.988281 1055.300781 635.101562 1072.8125 651.527344 C 1087.199219 665.492188 1097.503906 682.128906 1104.839844 700.753906 C 1105.296875 702.878906 1105.726562 705.011719 1106.117188 707.148438 C 1099.023438 707.53125 1091.929688 707.808594 1084.828125 707.992188 C 1082.414062 708.070312 1080.003906 708.171875 1077.59375 708.304688 C 1061.582031 709.167969 1061.582031 709.167969 1054.96875 707.148438 C 1049.886719 702.730469 1047.484375 697.871094 1044.738281 691.804688 C 1040.839844 686.152344 1035.890625 681.773438 1030.433594 677.65625 L 1028.226562 675.984375 C 1016.785156 667.5 1004.148438 661.972656 989.960938 660.09375 C 967.957031 658.050781 946.660156 658.789062 926.367188 667.992188 C 911.820312 675.011719 900.527344 684.929688 891.25 698.027344 C 884.515625 708.304688 880.449219 718.375 877.222656 730.167969 L 876.269531 733.519531 C 871.824219 752.683594 873.574219 774.164062 879.015625 792.910156 C 883.839844 808.480469 892.019531 823.828125 904.078125 835.023438 C 918.332031 846.476562 933.863281 854.121094 952 857.050781 C 971.617188 859.777344 991.816406 858.726562 1010.550781 851.863281 C 1023.558594 846.472656 1035.679688 838.925781 1044.804688 828.066406 C 1051.320312 819.148438 1055.992188 809.441406 1060.082031 799.21875 L 955.226562 799.21875 L 955.226562 757.019531 L 1108.675781 757.019531 L 1108.675781 618.914062 L 1170.9375 618.753906 L 1190.503906 618.683594 C 1198.464844 618.671875 1198.464844 618.671875 1202.207031 618.671875 C 1204.789062 618.667969 1207.371094 618.660156 1209.949219 618.644531 C 1235.417969 618.523438 1257.183594 620.332031 1279.898438 633.09375 C 1294.699219 642.210938 1306.339844 654.226562 1314.871094 669.371094 C 1325.234375 688.839844 1326.957031 708.519531 1326.28125 730.234375 C 1325.347656 746.414062 1318.945312 761.144531 1310.71875 774.921875 C 1308 779.050781 1305.082031 782.769531 1301.765625 786.429688 L 1299.5625 788.988281 C 1288.242188 801.296875 1272.800781 809.84375 1257.03125 815.105469 C 1245.367188 818.433594 1233.734375 818.820312 1221.671875 818.929688 L 1216.398438 819.003906 C 1211.824219 819.070312 1207.246094 819.121094 1202.667969 819.167969 C 1197.980469 819.21875 1193.289062 819.285156 1188.601562 819.347656 C 1179.4375 819.472656 1170.269531 819.574219 1161.105469 819.679688 L 1159.824219 896.402344 L 1108.675781 896.402344 L 1107.398438 812.007812 L 1098.445312 831.1875 C 1092.113281 843.246094 1084.839844 852.242188 1075.429688 861.878906 L 1073.121094 864.425781 C 1059.003906 879.664062 1038.382812 890.078125 1018.761719 896.242188 C 990.609375 904.652344 960.738281 905.050781 932.140625 898.621094 C 909.976562 893.285156 890.082031 883.609375 872.105469 869.550781 L 869.160156 867.253906 C 861.46875 860.84375 855.59375 853.285156 849.578125 845.347656 C 847.382812 842.515625 845.324219 839.992188 842.695312 837.582031 L 841.230469 839.839844 C 836.8125 846.4375 831.917969 852.664062 826.550781 858.519531 L 824.789062 860.457031 C 821.210938 864.296875 817.460938 867.648438 813.285156 870.828125 C 815.042969 874.585938 817.078125 877.808594 819.558594 881.128906 L 821.785156 884.125 L 824.152344 887.292969 L 829 893.832031 L 831.425781 897.101562 C 834.726562 901.5625 838.003906 906.046875 841.257812 910.550781 L 842.894531 912.785156 C 844.144531 914.542969 845.359375 916.328125 846.53125 918.140625 L 846.53125 920.699219 C 839.027344 920.917969 831.519531 921.082031 824.007812 921.191406 C 821.453125 921.238281 818.902344 921.296875 816.351562 921.375 C 812.671875 921.484375 809 921.535156 805.320312 921.574219 L 801.882812 921.714844 C 798.632812 921.714844 795.953125 921.589844 792.824219 920.699219 C 789.609375 918.109375 787.433594 915.164062 785.152344 911.75 C 784.070312 910.363281 782.980469 908.980469 781.886719 907.609375 L 778.917969 903.675781 L 775.890625 899.695312 L 773.644531 896.402344 L 773.644531 893.847656 L 770.5 894.875 C 742.449219 903.824219 712.671875 905.601562 683.761719 899.636719 C 657.613281 893.828125 634.566406 883.21875 614.597656 865.152344 C 597.109375 848.703125 584.078125 828.476562 576.714844 805.613281 C 569.03125 779.804688 567.042969 751.324219 572.925781 724.882812 L 574.160156 719.9375 L 574.78125 717.394531 C 580.640625 694.28125 592.679688 673.773438 608.996094 656.457031 C 616.996094 648.25 625.722656 641.480469 635.539062 635.539062 L 637.980469 634.054688 C 673.199219 613.101562 717.316406 607.609375 757.019531 617.636719 M 663.671875 672.621094 C 649.46875 682.488281 638.6875 694.910156 631.222656 710.585938 C 630.074219 713.261719 628.953125 715.953125 627.867188 718.65625 L 626.636719 721.632812 C 620.347656 738.445312 619.898438 757.847656 622.523438 775.425781 C 625.664062 794.082031 631.925781 809.945312 643.726562 824.832031 C 654.605469 837.769531 668.171875 846.878906 683.988281 852.929688 C 703.601562 859.207031 722.847656 859.75 742.953125 855.484375 C 741.796875 849.691406 738.519531 845.828125 734.960938 841.257812 C 733.566406 839.433594 732.175781 837.609375 730.785156 835.785156 L 728.582031 832.890625 C 724.773438 827.847656 721.074219 822.726562 717.378906 817.601562 L 715.289062 814.714844 C 711.621094 809.617188 708.054688 804.453125 704.589844 799.21875 C 712.125 799.246094 719.65625 799.308594 727.1875 799.414062 C 729.746094 799.441406 732.308594 799.460938 734.871094 799.46875 C 738.554688 799.480469 742.238281 799.535156 745.925781 799.59375 L 749.386719 799.578125 C 752.484375 799.652344 755.277344 799.808594 758.296875 800.496094 C 762.066406 803.480469 762.066406 803.480469 764.691406 806.890625 L 766.511719 809.160156 L 767.933594 811.207031 L 769.550781 813.503906 L 771.167969 815.84375 C 774.828125 821.09375 778.53125 826.230469 782.59375 831.1875 C 787.667969 828.914062 790.632812 826.097656 794.1875 821.875 C 804.777344 806.988281 811.253906 789.1875 813.285156 771.085938 C 814.488281 749.070312 812.558594 728.644531 803.054688 708.425781 C 794.398438 692.34375 782.429688 680.113281 767.25 670.066406 C 752.878906 661.527344 738.132812 658.472656 721.542969 658.179688 C 700.207031 658.050781 682.097656 660.859375 663.671875 672.621094 M 1159.828125 663.671875 L 1159.828125 773.644531 L 1193.953125 773.964844 L 1204.621094 774.105469 C 1207.464844 774.121094 1210.304688 774.132812 1213.148438 774.140625 L 1217.492188 774.222656 C 1228.835938 774.226562 1239.882812 772.476562 1249.867188 766.765625 C 1257.710938 761.367188 1264.648438 754.027344 1269.257812 745.707031 C 1275.007812 733.425781 1275.835938 721.816406 1274.914062 708.425781 C 1273.410156 698.914062 1269.171875 690.511719 1263.40625 682.851562 C 1256.234375 674.828125 1248.820312 669.921875 1238.804688 666.070312 C 1233.0625 664.25 1227.835938 663.511719 1221.8125 663.523438 L 1217.566406 663.523438 C 1215.382812 663.535156 1215.382812 663.535156 1213.148438 663.546875 L 1209.054688 663.550781 C 1204.019531 663.558594 1198.988281 663.574219 1193.953125 663.59375 Z M 1159.828125 663.671875 " fill-opacity="1" fill-rule="nonzero"/><path fill="#e4df4a" d="M 358.050781 556.257812 C 360.289062 556.496094 360.289062 556.496094 363.164062 557.535156 C 367.171875 562.136719 370.53125 567.152344 373.875 572.242188 L 377.261719 577.355469 L 379.101562 580.144531 C 382.726562 585.617188 386.375 591.078125 390.019531 596.535156 L 394.625 603.445312 C 395.730469 605.105469 395.730469 605.105469 396.859375 606.796875 L 408.589844 624.394531 L 410.074219 626.621094 C 411.300781 628.464844 412.527344 630.308594 413.753906 632.152344 C 423.371094 646.613281 433.109375 660.988281 442.824219 675.378906 C 454.277344 692.34375 465.707031 709.324219 476.972656 726.410156 C 481.765625 733.601562 486.765625 740.640625 491.8125 747.65625 L 493.320312 749.75 C 494.421875 751.273438 495.53125 752.789062 496.648438 754.296875 C 501.167969 760.453125 501.167969 760.453125 502.230469 764.613281 C 500.980469 769.707031 498.53125 772.246094 494.964844 776.011719 L 492.320312 778.757812 C 490.554688 780.75 488.796875 782.75 487.042969 784.753906 C 483.386719 788.867188 479.589844 792.769531 475.695312 796.660156 C 473.769531 798.785156 471.851562 800.917969 469.941406 803.054688 C 466.007812 807.453125 462.023438 811.730469 457.792969 815.84375 L 454.753906 818.878906 C 452.894531 820.746094 451.023438 822.601562 449.140625 824.449219 C 445.914062 827.628906 442.835938 830.660156 440.128906 834.304688 L 438.609375 836.300781 L 436.054688 836.300781 L 435.015625 838.621094 C 433.496094 841.414062 432.09375 843.222656 429.660156 845.253906 L 427.101562 845.253906 L 426.117188 847.511719 C 424.375 850.679688 422.445312 852.679688 419.828125 855.164062 C 416.414062 858.488281 413.167969 861.839844 410.078125 865.472656 C 406.355469 869.808594 402.394531 873.851562 398.332031 877.863281 C 394.371094 881.765625 390.503906 885.691406 386.902344 889.929688 C 381.257812 896.542969 375.027344 902.601562 368.804688 908.664062 C 367.023438 910.449219 365.335938 912.332031 363.65625 914.210938 L 360.609375 916.863281 L 358.113281 917.066406 C 354.15625 914.828125 351.179688 911.722656 348.058594 908.472656 L 345.984375 906.355469 C 341.6875 901.921875 337.542969 897.351562 333.550781 892.644531 C 329.972656 888.640625 326.128906 884.914062 322.308594 881.148438 C 318.128906 877 314.226562 872.699219 310.40625 868.222656 C 306.941406 864.320312 303.1875 860.710938 299.472656 857.046875 C 296.132812 853.660156 293.046875 850.097656 289.953125 846.488281 C 286.792969 842.933594 283.394531 839.640625 280.007812 836.300781 C 276.78125 833.023438 273.8125 829.558594 270.816406 826.074219 C 267.636719 822.507812 264.230469 819.195312 260.832031 815.847656 C 257.574219 812.539062 254.574219 809.042969 251.550781 805.527344 C 249.40625 803.113281 247.183594 800.839844 244.878906 798.578125 C 241.839844 795.589844 238.9375 792.472656 236.167969 789.230469 C 231.570312 783.855469 226.527344 779.011719 221.398438 774.148438 C 218.585938 770.996094 217.179688 768.765625 216.109375 764.691406 C 216.460938 762.207031 216.460938 762.207031 217.386719 759.578125 C 219.027344 757.488281 219.027344 757.488281 221.152344 755.296875 C 227.957031 747.785156 233.355469 739.296875 238.964844 730.882812 L 242.558594 725.539062 C 244.972656 721.949219 247.386719 718.355469 249.796875 714.757812 C 254.484375 707.773438 259.234375 700.828125 263.984375 693.882812 C 270.097656 684.914062 276.164062 675.90625 282.175781 666.867188 L 284.066406 664.019531 C 287.140625 659.402344 290.207031 654.777344 293.269531 650.152344 C 299.058594 641.421875 304.949219 632.8125 311.164062 624.375 C 313.683594 620.941406 316.070312 617.4375 318.410156 613.878906 L 321 609.957031 L 323.523438 606.128906 C 330.164062 596.085938 336.898438 586.113281 343.664062 576.15625 L 346.183594 572.4375 L 348.601562 568.890625 L 350.757812 565.714844 C 353.070312 562.460938 355.527344 559.351562 358.050781 556.257812 M 356.769531 657.277344 C 354.898438 659.910156 353.035156 662.546875 351.175781 665.191406 L 349.578125 667.429688 C 346.671875 671.578125 344.347656 675.5 342.703125 680.292969 L 340.148438 680.292969 C 338.296875 682.769531 338.296875 682.769531 336.390625 686.050781 C 332.480469 692.378906 328.394531 698.550781 324.164062 704.671875 L 322.339844 707.320312 C 318.171875 713.351562 313.941406 719.339844 309.644531 725.28125 L 308.179688 727.609375 L 308.179688 730.167969 L 305.621094 730.167969 C 303.507812 733.304688 301.480469 736.503906 299.546875 739.757812 C 295.980469 745.640625 292.460938 751.34375 288.117188 756.699219 L 285.160156 760.855469 C 285.195312 763.464844 285.195312 763.464844 286.441406 765.972656 C 288.449219 768.351562 288.449219 768.351562 290.996094 770.605469 C 295.96875 775.375 300.203125 780.464844 304.398438 785.925781 C 307.167969 789.316406 310.175781 792.308594 313.292969 795.382812 C 315.765625 798 318.21875 800.636719 320.648438 803.296875 L 322.683594 805.507812 C 327.5625 810.8125 332.394531 816.160156 337.207031 821.527344 C 340.671875 825.375 344.160156 829.203125 347.660156 833.023438 L 349.460938 834.996094 C 352.261719 838.054688 355.082031 841.074219 358.050781 843.976562 C 362.707031 842.011719 365.675781 839.21875 369.222656 835.652344 L 372.722656 832.144531 L 374.53125 830.3125 C 376.328125 828.496094 378.128906 826.6875 379.9375 824.882812 C 385.804688 818.980469 391.476562 812.996094 396.898438 806.679688 C 400.386719 802.730469 404.15625 799.070312 407.921875 795.382812 C 413.46875 789.894531 418.929688 784.40625 423.945312 778.417969 C 425.285156 776.84375 426.667969 775.3125 428.101562 773.824219 L 430.300781 771.484375 L 432.257812 769.472656 L 433.496094 767.25 C 433.292969 763.246094 432.234375 760.882812 430.214844 757.414062 L 427.660156 753.742188 L 424.84375 749.640625 L 421.988281 745.511719 C 420.359375 743.066406 418.734375 740.613281 417.113281 738.160156 C 412.4375 731.144531 407.664062 724.199219 402.878906 717.261719 C 399.507812 712.375 396.179688 707.460938 392.894531 702.511719 C 387.027344 693.660156 381.023438 684.894531 375.027344 676.125 L 372.617188 672.59375 L 370.3125 669.246094 C 369.085938 667.4375 367.910156 665.59375 366.789062 663.71875 C 365.460938 661.386719 365.460938 661.386719 363.164062 658.554688 C 359.804688 657.324219 359.804688 657.324219 356.769531 657.277344 " fill-opacity="1" fill-rule="nonzero"/><path fill="#c0cd3f" d="M 493.597656 753.183594 L 496.15625 753.183594 C 499.144531 756.878906 501.039062 759.890625 502.148438 764.53125 C 501.207031 768.808594 500.238281 770.164062 497.433594 773.40625 C 495.738281 775.195312 494.03125 776.980469 492.320312 778.757812 C 490.554688 780.75 488.796875 782.75 487.042969 784.753906 C 483.386719 788.867188 479.589844 792.769531 475.695312 796.660156 C 473.769531 798.785156 471.851562 800.917969 469.941406 803.054688 C 466.007812 807.453125 462.023438 811.730469 457.792969 815.84375 L 454.753906 818.878906 C 452.894531 820.746094 451.023438 822.601562 449.140625 824.449219 C 445.914062 827.628906 442.835938 830.660156 440.128906 834.304688 L 438.609375 836.300781 L 436.054688 836.300781 L 435.015625 838.621094 C 433.496094 841.414062 432.09375 843.222656 429.660156 845.253906 L 427.101562 845.253906 L 426.117188 847.511719 C 424.375 850.679688 422.445312 852.679688 419.828125 855.164062 C 416.414062 858.488281 413.167969 861.839844 410.078125 865.472656 C 406.355469 869.808594 402.394531 873.851562 398.332031 877.863281 C 394.371094 881.765625 390.503906 885.691406 386.902344 889.929688 C 381.257812 896.542969 375.027344 902.601562 368.804688 908.664062 C 367.023438 910.449219 365.335938 912.332031 363.65625 914.210938 L 360.609375 916.863281 L 358.113281 917.066406 C 354.15625 914.828125 351.179688 911.722656 348.058594 908.472656 L 345.984375 906.355469 C 341.6875 901.921875 337.542969 897.351562 333.550781 892.644531 C 329.972656 888.640625 326.128906 884.914062 322.308594 881.148438 C 318.128906 877 314.226562 872.699219 310.40625 868.222656 C 306.941406 864.320312 303.1875 860.710938 299.472656 857.046875 C 296.132812 853.660156 293.046875 850.097656 289.953125 846.488281 C 286.792969 842.933594 283.394531 839.640625 280.007812 836.300781 C 276.78125 833.023438 273.8125 829.558594 270.816406 826.074219 C 267.636719 822.507812 264.230469 819.195312 260.832031 815.847656 C 257.574219 812.539062 254.574219 809.042969 251.550781 805.527344 C 249.40625 803.113281 247.183594 800.839844 244.878906 798.578125 C 241.839844 795.589844 238.9375 792.472656 236.167969 789.230469 C 231.570312 783.855469 226.527344 779.011719 221.398438 774.148438 C 218.621094 771.035156 217.292969 768.667969 216.109375 764.691406 C 216.382812 761.574219 217.183594 759.90625 218.824219 757.261719 L 221.222656 755.742188 C 228.425781 755.894531 234.878906 758.503906 241.605469 760.9375 C 248.402344 763.015625 254.550781 763.492188 261.609375 763.089844 C 277.414062 762.21875 277.414062 762.21875 285.160156 763.414062 C 291.1875 766.625 294.21875 770.582031 297.949219 776.199219 C 299.910156 778.554688 301.882812 780.898438 303.863281 783.234375 C 305.371094 785.101562 306.808594 787.019531 308.179688 788.988281 L 308.179688 791.546875 L 310.480469 792.570312 C 313.402344 794.164062 315.152344 795.75 317.394531 798.1875 L 319.652344 800.628906 L 322.007812 803.214844 L 324.449219 805.867188 C 328.96875 810.785156 333.414062 815.769531 337.785156 820.816406 C 341.175781 824.679688 344.601562 828.507812 348.058594 832.304688 L 350.042969 834.523438 C 353.347656 838.140625 356.160156 840.679688 360.609375 842.695312 C 364.453125 838.882812 368.296875 835.0625 372.136719 831.238281 L 376.046875 827.355469 C 382.8125 820.644531 389.453125 813.902344 395.652344 806.652344 C 399.125 802.703125 402.886719 799.058594 406.640625 795.382812 C 412.890625 789.199219 418.886719 782.933594 424.546875 776.199219 L 426.730469 773.777344 L 428.859375 771.40625 L 430.726562 769.347656 C 432.410156 766.976562 432.964844 764.976562 433.496094 762.136719 L 436.457031 762.414062 C 462.511719 765.03125 462.511719 765.03125 487.921875 760.457031 C 491.15625 758.519531 491.15625 758.519531 492.796875 755.5 Z M 493.597656 753.183594 " fill-opacity="1" fill-rule="nonzero"/></svg>